<?xml version="1.0" encoding="UTF-8"?>
<svg xmlns="http://www.w3.org/2000/svg" xmlns:xlink="http://www.w3.org/1999/xlink" width="375pt" height="374.999991pt" viewBox="0 0 375 374.999991" version="1.2">
<defs>
<clipPath id="clip1">
  <path d="M 68.355469 68.355469 L 306.855469 68.355469 L 306.855469 306.855469 L 68.355469 306.855469 Z M 68.355469 68.355469 "/>
</clipPath>
</defs>
<g id="surface1">
<g clip-path="url(#clip1)" clip-rule="nonzero">
<path style=" stroke:none;fill-rule:nonzero;fill:rgb(94.119263%,31.759644%,19.999695%);fill-opacity:1;" d="M 187.613281 306.851562 C 121.851562 306.851562 68.355469 253.363281 68.355469 187.613281 C 68.355469 121.855469 121.851562 68.355469 187.613281 68.355469 C 253.363281 68.355469 306.855469 121.855469 306.855469 187.613281 C 306.855469 253.363281 253.363281 306.851562 187.613281 306.851562 Z M 187.613281 80.164062 C 128.363281 80.164062 80.164062 128.367188 80.164062 187.613281 C 80.164062 246.851562 128.363281 295.046875 187.613281 295.046875 C 246.851562 295.046875 295.046875 246.851562 295.046875 187.613281 C 295.046875 128.367188 246.851562 80.164062 187.613281 80.164062 Z M 187.613281 80.164062 "/>
</g>
<path style=" stroke:none;fill-rule:nonzero;fill:rgb(94.119263%,31.759644%,19.999695%);fill-opacity:1;" d="M 128.144531 254.800781 C 120.140625 254.800781 112.234375 250.203125 108.472656 243.359375 C 105.035156 237.117188 105.398438 229.855469 109.46875 223.4375 L 168.96875 129.574219 C 172.957031 123.28125 179.667969 119.523438 186.921875 119.523438 C 194.179688 119.523438 200.933594 123.265625 204.988281 129.523438 L 265.730469 223.390625 C 269.859375 229.769531 270.277344 237.003906 266.886719 243.242188 C 263.144531 250.117188 255.210938 254.734375 247.140625 254.734375 C 247.140625 254.734375 247.140625 254.734375 247.136719 254.734375 C 240.066406 254.734375 233.726562 251.199219 229.742188 245.046875 L 187.179688 179.28125 L 145.519531 245 C 141.570312 251.230469 135.238281 254.800781 128.144531 254.800781 Z M 186.921875 131.335938 C 183.6875 131.335938 180.777344 132.996094 178.941406 135.894531 L 119.441406 229.757812 C 117.671875 232.546875 117.464844 235.207031 118.816406 237.671875 C 120.515625 240.753906 124.4375 242.992188 128.144531 242.992188 C 131.242188 242.992188 133.730469 241.539062 135.550781 238.679688 L 187.074219 157.390625 L 239.652344 238.632812 C 241.5 241.480469 244.015625 242.921875 247.140625 242.921875 C 250.890625 242.921875 254.835938 240.6875 256.515625 237.597656 C 257.835938 235.175781 257.597656 232.554688 255.820312 229.804688 L 195.074219 135.941406 C 193.179688 133.011719 190.207031 131.335938 186.921875 131.335938 Z M 186.921875 131.335938 "/>
</g>
</svg>
